<svg width="53" height="20" viewBox="0 0 53 20" fill="none" xmlns="http://www.w3.org/2000/svg">
<path d="M10.5601 16.522V19H2.84521V16.522H10.5601ZM3.62646 1.22656V19H0.660156V1.22656H3.62646ZM9.52246 8.62402V11.0654H2.84521V8.62402H9.52246ZM10.4868 1.22656V3.7168H2.84521V1.22656H10.4868ZM19.1416 3.66797L14.8447 19H11.7441L17.3838 1.22656H19.3125L19.1416 3.66797ZM22.5718 19L18.2627 3.66797L18.0552 1.22656H20.0205L25.6846 19H22.5718ZM22.645 12.396V14.8862H14.3687V12.396H22.645ZM35.3525 14.4102C35.3525 14.0439 35.3118 13.7184 35.2305 13.4336C35.1572 13.1406 35.0148 12.8761 34.8032 12.6401C34.5916 12.4041 34.2905 12.1722 33.8999 11.9443C33.5174 11.7165 33.021 11.4845 32.4106 11.2485C31.7108 10.98 31.0557 10.687 30.4453 10.3696C29.8431 10.0441 29.3101 9.6779 28.8462 9.271C28.3905 8.85596 28.0324 8.37174 27.772 7.81836C27.5116 7.26497 27.3813 6.62207 27.3813 5.88965C27.3813 5.16536 27.5075 4.50618 27.7598 3.91211C28.0202 3.3099 28.3864 2.79313 28.8584 2.36182C29.3385 1.92236 29.9082 1.58464 30.5674 1.34863C31.2266 1.10449 31.9549 0.982422 32.7524 0.982422C33.8999 0.982422 34.8805 1.22656 35.6943 1.71484C36.5163 2.20312 37.1429 2.85824 37.5742 3.68018C38.0137 4.50212 38.2334 5.41357 38.2334 6.41455H35.2793C35.2793 5.83675 35.1898 5.32406 35.0107 4.87646C34.8317 4.42887 34.555 4.07894 34.1807 3.82666C33.8063 3.57438 33.3221 3.44824 32.728 3.44824C32.1828 3.44824 31.7311 3.55404 31.373 3.76562C31.0231 3.97721 30.7627 4.26611 30.5918 4.63232C30.429 4.99854 30.3477 5.41764 30.3477 5.88965C30.3477 6.21517 30.4168 6.51221 30.5552 6.78076C30.6935 7.04118 30.8929 7.28125 31.1533 7.50098C31.4137 7.7207 31.7311 7.92822 32.1055 8.12354C32.4798 8.31885 32.9111 8.50602 33.3994 8.68506C34.2295 8.98617 34.9538 9.31982 35.5723 9.68604C36.1908 10.0522 36.6994 10.4632 37.0981 10.9189C37.505 11.3665 37.8062 11.8752 38.0015 12.4448C38.2049 13.0145 38.3066 13.6615 38.3066 14.3857C38.3066 15.1182 38.1805 15.7855 37.9282 16.3877C37.6841 16.9818 37.326 17.4904 36.854 17.9136C36.382 18.3368 35.8123 18.6663 35.145 18.9023C34.4777 19.1302 33.729 19.2441 32.8989 19.2441C32.134 19.2441 31.3975 19.1302 30.6895 18.9023C29.9896 18.6745 29.363 18.3286 28.8096 17.8647C28.2562 17.3927 27.8167 16.8027 27.4912 16.0947C27.1738 15.3867 27.0151 14.5566 27.0151 13.6045H29.9814C29.9814 14.1742 30.0506 14.6624 30.189 15.0693C30.3273 15.4681 30.5267 15.7977 30.7871 16.0581C31.0557 16.3104 31.369 16.4976 31.7271 16.6196C32.0933 16.7336 32.5002 16.7905 32.9478 16.7905C33.5011 16.7905 33.9528 16.6929 34.3027 16.4976C34.6608 16.2941 34.9253 16.0133 35.0962 15.6553C35.2671 15.2972 35.3525 14.8822 35.3525 14.4102ZM42.8599 1.22656L45.9849 9.64941L49.1099 1.22656H52.3813L47.4741 12.457V19H44.4834V12.457L39.5762 1.22656H42.8599Z" fill="black"/>
</svg>
